<?xml version="1.0" encoding="utf-8"?>
<!-- Generator: Adobe Illustrator 25.4.1, SVG Export Plug-In . SVG Version: 6.00 Build 0)  -->
<svg version="1.1" id="Layer_1" xmlns="http://www.w3.org/2000/svg" xmlns:xlink="http://www.w3.org/1999/xlink" x="0px" y="0px"
	 viewBox="0 0 110 94" style="enable-background:new 0 0 110 94;" xml:space="preserve">
<style type="text/css">
	.st0{fill:#09527E;}
</style>
<path class="st0" d="M25.8,93.7c-6.8,0-13.4-2.7-18.2-7.5C2.8,81.4,0.1,74.8,0.1,68v-0.1c0-0.1,0-0.2,0-0.4
	c-0.5-9.3,1-34.6,26.5-66.9c0.2-0.3,0.6-0.5,0.9-0.6c0.4-0.1,0.7,0,1.1,0.2c0.3,0.2,0.6,0.5,0.7,0.8c0.1,0.3,0.1,0.7,0,1.1
	c-0.1,0.2-7,21.1-2.3,40.2c6.7,0.3,13,3.2,17.6,8.2c4.6,4.9,7.1,11.4,6.9,18.2c-0.2,6.7-2.9,13.1-7.8,17.8S32.5,93.7,25.8,93.7
	L25.8,93.7z M3.2,68.1c0,4.5,1.4,8.8,3.8,12.5c2.5,3.7,6,6.6,10.2,8.3c4.1,1.7,8.7,2.1,13,1.2s8.4-3,11.5-6.2s5.3-7.2,6.2-11.6
	c0.9-4.4,0.4-8.9-1.3-13c-1.7-4.1-4.6-7.6-8.3-10.1c-3.7-2.5-8.1-3.8-12.5-3.8c-0.3,0-0.7-0.1-1-0.3c-0.3-0.2-0.5-0.5-0.6-0.8
	c-3.6-13.2-1.8-27,0-35.3C4,37.3,2.7,59,3.2,67.3C3.2,67.6,3.2,67.8,3.2,68.1z M84.3,93.7c-6.8,0-13.4-2.7-18.2-7.5
	c-4.8-4.8-7.5-11.4-7.5-18.2v-0.1c0-0.1,0-0.2,0-0.4C58,58.2,59.5,32.9,85,0.6C85.3,0.3,85.6,0.1,86,0C86.3,0,86.7,0,87,0.2
	c0.3,0.2,0.6,0.5,0.7,0.8c0.1,0.3,0.1,0.7,0,1.1c-0.1,0.2-7,21.1-2.3,40.2c6.7,0.3,13,3.2,17.6,8.2c4.6,4.9,7.1,11.4,6.9,18.2
	c-0.2,6.7-2.9,13.1-7.8,17.8C97.4,91.1,91,93.7,84.3,93.7L84.3,93.7z M61.7,68.1c0,4.5,1.4,8.8,3.8,12.5c2.5,3.7,6,6.6,10.2,8.3
	c4.1,1.7,8.7,2.1,13,1.2c4.4-0.9,8.4-3,11.5-6.2c3.2-3.2,5.3-7.2,6.2-11.6c0.9-4.4,0.4-8.9-1.3-13c-1.7-4.1-4.6-7.6-8.3-10.1
	c-3.7-2.5-8.1-3.8-12.5-3.8c-0.3,0-0.7-0.1-1-0.3c-0.3-0.2-0.5-0.5-0.6-0.8c-3.6-13.2-1.8-27,0-35.3c-20.2,28.4-21.5,50-21,58.4
	C61.7,67.6,61.7,67.8,61.7,68.1z"/>
</svg>
